HIERARCHY
ROOT Hips
{
	OFFSET 0.00000 0.00000 0.00000
	CHANNELS 6 Xposition Yposition Zposition Zrotation Yrotation Xrotation 
	JOINT LHipJoint
	{
		OFFSET 0 0 0
		CHANNELS 3 Zrotation Yrotation Xrotation
		JOINT LeftUpLeg
		{
			OFFSET 1.49846 -1.74315 1.08250
			CHANNELS 3 Zrotation Yrotation Xrotation
			JOINT LeftLeg
			{
				OFFSET 2.40966 -6.62050 0.00000
				CHANNELS 3 Zrotation Yrotation Xrotation
				JOINT LeftFoot
				{
					OFFSET 2.68066 -7.36505 0.00000
					CHANNELS 3 Zrotation Yrotation Xrotation
					JOINT LeftToeBase
					{
						OFFSET 0.14291 -0.39265 2.35870
						CHANNELS 3 Zrotation Yrotation Xrotation
						End Site
						{
							OFFSET 0.00000 -0.00000 1.20470
						}
					}
				}
			}
		}
	}
	JOINT RHipJoint
	{
		OFFSET 0 0 0
		CHANNELS 3 Zrotation Yrotation Xrotation
		JOINT RightUpLeg
		{
			OFFSET -1.46318 -1.74316 1.08250
			CHANNELS 3 Zrotation Yrotation Xrotation
			JOINT RightLeg
			{
				OFFSET -2.39759 -6.58734 0.00000
				CHANNELS 3 Zrotation Yrotation Xrotation
				JOINT RightFoot
				{
					OFFSET -2.63570 -7.24154 0.00000
					CHANNELS 3 Zrotation Yrotation Xrotation
					JOINT RightToeBase
					{
						OFFSET -0.17578 -0.48294 2.47180
						CHANNELS 3 Zrotation Yrotation Xrotation
						End Site
						{
							OFFSET -0.00000 -0.00000 1.26600
						}
					}
				}
			}
		}
	}
	JOINT LowerBack
	{
		OFFSET 0 0 0
		CHANNELS 3 Zrotation Yrotation Xrotation
		JOINT Spine
		{
			OFFSET 0.00843 2.19877 -0.20423
			CHANNELS 3 Zrotation Yrotation Xrotation
			JOINT Spine1
			{
				OFFSET -0.03080 2.21436 -0.05138
				CHANNELS 3 Zrotation Yrotation Xrotation
				JOINT Neck
				{
					OFFSET 0 0 0
					CHANNELS 3 Zrotation Yrotation Xrotation
					JOINT Neck1
					{
						OFFSET -0.04063 1.58841 0.30440
						CHANNELS 3 Zrotation Yrotation Xrotation
						JOINT Head
						{
							OFFSET 0.09277 1.59484 -0.39337
							CHANNELS 3 Zrotation Yrotation Xrotation
							End Site
							{
								OFFSET 0.03488 1.66530 -0.17040
							}
						}
					}
				}
				JOINT LeftShoulder
				{
					OFFSET 0 0 0
					CHANNELS 3 Zrotation Yrotation Xrotation
					JOINT LeftArm
					{
						OFFSET 3.03849 1.31522 0.02556
						CHANNELS 3 Zrotation Yrotation Xrotation
						JOINT LeftForeArm
						{
							OFFSET 5.25537 -0.00000 0.00000
							CHANNELS 3 Zrotation Yrotation Xrotation
							JOINT LeftHand
							{
								OFFSET 3.38855 -0.00000 -0.00000
								CHANNELS 3 Zrotation Yrotation Xrotation
								JOINT LeftFingerBase
								{
									OFFSET 0 0 0
									CHANNELS 3 Zrotation Yrotation Xrotation
									JOINT LeftHandIndex1
									{
										OFFSET 0.61452 -0.00000 0.00000
										CHANNELS 3 Zrotation Yrotation Xrotation
										End Site
										{
											OFFSET 0.49544 -0.00000 0.00000
										}
									}
								}
								JOINT LThumb
								{
									OFFSET 0 0 0
									CHANNELS 3 Zrotation Yrotation Xrotation
									End Site
									{
										OFFSET 0.50300 -0.00000 0.50300
									}
								}
							}
						}
					}
				}
				JOINT RightShoulder
				{
					OFFSET 0 0 0
					CHANNELS 3 Zrotation Yrotation Xrotation
					JOINT RightArm
					{
						OFFSET -3.06926 1.12091 -0.13185
						CHANNELS 3 Zrotation Yrotation Xrotation
						JOINT RightForeArm
						{
							OFFSET -5.38183 -0.00000 0.00000
							CHANNELS 3 Zrotation Yrotation Xrotation
							JOINT RightHand
							{
								OFFSET -3.16988 -0.00000 0.00000
								CHANNELS 3 Zrotation Yrotation Xrotation
								JOINT RightFingerBase
								{
									OFFSET 0 0 0
									CHANNELS 3 Zrotation Yrotation Xrotation
									JOINT RightHandIndex1
									{
										OFFSET -0.63768 -0.00000 0.00000
										CHANNELS 3 Zrotation Yrotation Xrotation
										End Site
										{
											OFFSET -0.51411 -0.00000 0.00000
										}
									}
								}
								JOINT RThumb
								{
									OFFSET 0 0 0
									CHANNELS 3 Zrotation Yrotation Xrotation
									End Site
									{
										OFFSET -0.52196 -0.00000 0.52196
									}
								}
							}
						}
					}
				}
			}
		}
	}
}
MOTION
Frames: 7
Frame Time: .0083333
5.0129 17.3495 -32.2378 0 0 0 0 0 0 -21 0 0 0 0 0 0 0 0 0 0 0 0 0 0 21 0 0 0 0 0 0 0 0 0 0 0 0 0 0 0 0 0 0 0 0 0 0 -16 0 0 21 0 0 11 0 0 0 -8 0 0 0 0 0 0 0 0 0 0 0 0 0 0 0 0 0 0 0 0 8 0 0 0 0 0 0 0 0 0 0 0 0 0 0 0 0 0
5.0129 17.3495 -32.2378 4.2860 1.1531 3.4856 0.0000 0.0000 0.0000 -22.7484 -19.4928 -4.2521 2.6593 10.1220 29.3727 0.7946 13.7033 -26.7959 0.1312 2.3348 6.4318 0.0000 0.0000 0.0000 15.4991 31.2850 -0.5066 -3.5376 -11.5183 34.0484 -3.2724 -20.5183 -45.7416 -0.1682 -2.6422 7.2840 -2.8646 -0.5098 -0.4154 -3.2399 -0.3598 6.6864 -1.8130 -0.2346 7.2096 -8.5649 -3.9711 -9.8683 7.7950 -6.0716 28.7249 3.5817 -2.7725 11.4484 0.0000 0.0000 0.0000 -29.7240 15.5118 -17.3498 22.0083 -32.9864 -6.5904 -0.0000 -0.0000 16.5739 15.3289 -1.3569 -0.3719 -7.1250 0.0000 -0.0000 -8.7154 28.5295 3.5319 0.0000 0.0000 0.0000 31.2582 -9.4373 -19.6839 -18.7092 29.0557 -4.8888 0.0000 -0.0000 -2.5581 -14.7010 6.7820 -1.7746 7.1250 -0.0000 -0.0000 8.8504 -22.9909 4.7456
5.0092 17.3486 -32.2291 4.2716 1.1597 3.5454 0.0000 0.0000 0.0000 -22.7318 -19.6325 -4.2382 2.6609 10.1247 29.3815 0.7999 13.7609 -26.8939 0.1378 2.3924 6.5914 0.0000 0.0000 0.0000 15.6220 31.5545 -0.3878 -3.5427 -11.5256 34.0738 -3.3838 -20.4071 -46.0941 -0.1863 -2.7803 7.6676 -2.8927 -0.5567 -0.3513 -3.2050 -0.4339 6.5289 -1.7606 -0.2731 7.0024 -8.6844 -4.0733 -10.0128 7.8639 -6.1612 28.0376 3.5969 -2.8150 11.2287 0.0000 0.0000 0.0000 -29.8177 15.7381 -17.2161 22.0436 -33.0263 -6.6096 -0.0000 -0.0000 16.5988 15.7080 -1.6580 -0.4662 -7.1250 0.0000 -0.0000 -8.4000 28.2205 3.4636 0.0000 0.0000 0.0000 31.1515 -9.4228 -19.4661 -18.7117 29.0589 -4.8900 0.0000 -0.0000 -2.5148 -14.7102 6.7626 -1.7707 7.1250 -0.0000 -0.0000 8.8445 -23.0104 4.7383
5.0057 17.3478 -32.2189 4.3045 1.1565 3.5947 0.0000 0.0000 0.0000 -22.7930 -19.7932 -4.1797 2.6634 10.1291 29.3958 0.8086 13.8552 -27.0549 0.1408 2.4186 6.6641 0.0000 0.0000 0.0000 15.6637 31.7310 -0.3141 -3.5485 -11.5341 34.1030 -3.4238 -20.4699 -46.2971 -0.1830 -2.7555 7.5987 -2.9619 -0.5677 -0.3339 -3.1949 -0.4516 6.4313 -1.7098 -0.2856 6.8880 -8.7234 -4.1963 -10.3410 7.9337 -6.2901 27.4736 3.5941 -2.8624 11.0971 0.0000 0.0000 0.0000 -29.8860 15.7694 -17.1978 22.0672 -33.0529 -6.6225 -0.0000 -0.0000 16.7657 15.8983 -1.6381 -0.4665 -7.1250 0.0000 -0.0000 -8.2551 28.2407 3.3988 0.0000 0.0000 0.0000 31.1143 -9.3833 -19.4131 -18.7041 29.0493 -4.8863 0.0000 -0.0000 -2.4962 -14.8127 6.6170 -1.7454 7.1250 -0.0000 -0.0000 8.7760 -23.1556 4.6712
5.0024 17.3462 -32.2087 4.3038 1.1812 3.6307 0.0000 0.0000 0.0000 -22.8085 -19.9175 -4.1320 2.6664 10.1344 29.4132 0.8088 13.9393 -27.1405 0.1406 2.4169 6.6592 0.0000 0.0000 0.0000 15.7698 31.9175 -0.1939 -3.5537 -11.5416 34.1290 -3.4907 -20.5003 -46.5781 -0.1920 -2.8217 7.7827 -2.9920 -0.6026 -0.3278 -3.1670 -0.5030 6.3419 -1.6647 -0.3130 6.7886 -8.7860 -4.2860 -10.7929 8.0002 -6.3704 27.1592 3.6050 -2.8876 11.0819 0.0000 0.0000 0.0000 -29.9609 15.8534 -17.1215 22.0596 -33.0443 -6.6183 -0.0000 -0.0000 16.7185 16.3093 -1.4015 -0.4100 -7.1250 0.0000 -0.0000 -7.9557 28.4842 3.2269 0.0000 0.0000 0.0000 31.0205 -9.2964 -19.3924 -18.6677 29.0037 -4.8687 0.0000 -0.0000 -2.4603 -14.7753 6.6502 -1.7495 7.1250 -0.0000 -0.0000 8.8019 -23.1229 4.6920
4.9990 17.3447 -32.1986 4.3128 1.1953 3.6733 0.0000 0.0000 0.0000 -22.8392 -20.0678 -4.0786 2.6696 10.1399 29.4311 0.8133 14.0275 -27.2636 0.1434 2.4408 6.7255 0.0000 0.0000 0.0000 15.8641 32.1247 -0.0775 -3.5594 -11.5498 34.1575 -3.5634 -20.5094 -46.8639 -0.1994 -2.8752 7.9315 -3.0278 -0.6284 -0.3170 -3.1486 -0.5425 6.2371 -1.6251 -0.3343 6.6702 -8.8247 -4.3799 -11.1804 8.0567 -6.4598 26.7923 3.6063 -2.9172 11.0339 -0.0000 -0.0000 0.0000 -30.0211 15.9253 -17.0502 22.0596 -33.0444 -6.6183 -0.0000 -0.0000 16.7487 16.6275 -1.2866 -0.3842 -7.1250 0.0000 -0.0000 -7.7181 28.6028 3.1070 -0.0000 -0.0000 0.0000 30.9493 -9.2476 -19.3238 -18.6479 28.9789 -4.8591 0.0000 -0.0000 -2.4460 -14.7863 6.6198 -1.7429 7.1250 -0.0000 -0.0000 8.7952 -23.1537 4.6821
4.9957 17.3430 -32.1883 4.3204 1.2105 3.7119 0.0000 0.0000 0.0000 -22.8722 -20.2249 -4.0196 2.6740 10.1477 29.4563 0.8184 14.1202 -27.3945 0.1463 2.4645 6.7913 0.0000 0.0000 0.0000 15.9636 32.3282 0.0472 -3.5643 -11.5568 34.1816 -3.6357 -20.5232 -47.1494 -0.2069 -2.9284 8.0794 -3.0550 -0.6494 -0.3115 -3.1343 -0.5752 6.1325 -1.5943 -0.3516 6.5553 -8.8471 -4.4669 -11.6036 8.1113 -6.5452 26.5219 3.6063 -2.9426 11.0287 0.0000 0.0000 0.0000 -30.0647 15.9748 -16.9723 22.0505 -33.0341 -6.6134 -0.0000 -0.0000 16.7636 16.9258 -1.1476 -0.3492 -7.1250 0.0000 -0.0000 -7.4972 28.7468 2.9909 0.0000 0.0000 0.0000 30.8852 -9.2099 -19.2574 -18.6281 28.9540 -4.8495 0.0000 -0.0000 -2.4441 -14.7924 6.5927 -1.7366 7.1250 -0.0000 -0.0000 8.7920 -23.1810 4.6747
